<svg width="28" height="26" viewBox="0 0 28 26" fill="none" xmlns="http://www.w3.org/2000/svg">
<path d="M26.6648 22.75C26.4357 22.75 26.2375 22.6696 26.0702 22.5088C25.9028 22.348 25.8191 22.1576 25.8191 21.9375C25.8191 21.7174 25.9028 21.527 26.0702 21.3662C26.2375 21.2054 26.4357 21.125 26.6648 21.125C26.8938 21.125 27.092 21.2054 27.2594 21.3662C27.4268 21.527 27.5104 21.7174 27.5104 21.9375C27.5104 22.1576 27.4268 22.348 27.2594 22.5088C27.092 22.6696 26.8938 22.75 26.6648 22.75ZM26.6648 16.25C26.4357 16.25 26.2375 16.1696 26.0702 16.0088C25.9028 15.848 25.8191 15.6576 25.8191 15.4375V13.8125C25.8191 13.5924 25.9028 13.402 26.0702 13.2412C26.2375 13.0804 26.4357 13 26.6648 13C26.8938 13 27.092 13.0804 27.2594 13.2412C27.4268 13.402 27.5104 13.5924 27.5104 13.8125V15.4375C27.5104 15.6576 27.4268 15.848 27.2594 16.0088C27.092 16.1696 26.8938 16.25 26.6648 16.25ZM26.6648 9.75H25.8191V10.5625C25.8191 10.7826 25.7354 10.973 25.5681 11.1338C25.4007 11.2946 25.2025 11.375 24.9734 11.375C24.7444 11.375 24.5462 11.2946 24.3788 11.1338C24.2115 10.973 24.1278 10.7826 24.1278 10.5625V9.75H20.7451V10.5625C20.7451 10.7826 20.6614 10.973 20.4941 11.1338C20.3267 11.2946 20.1285 11.375 19.8995 11.375H19.0538V12.1875C19.0538 12.4076 18.9701 12.598 18.8028 12.7588C18.6354 12.9196 18.4372 13 18.2081 13C17.9791 13 17.7809 12.9196 17.6135 12.7588C17.4462 12.598 17.3625 12.4076 17.3625 12.1875V6.5H14.8255C14.5965 6.5 14.3983 6.4196 14.2309 6.25879C14.0635 6.09798 13.9798 5.90755 13.9798 5.6875C13.9798 5.46745 14.0635 5.27702 14.2309 5.11621C14.3983 4.9554 14.5965 4.875 14.8255 4.875H17.3625V1.625H15.6712V2.4375C15.6712 2.65755 15.5875 2.84798 15.4201 3.00879C15.2527 3.1696 15.0545 3.25 14.8255 3.25C14.5965 3.25 14.3983 3.1696 14.2309 3.00879C14.0635 2.84798 13.9798 2.65755 13.9798 2.4375V0.8125C13.9798 0.592448 14.0635 0.402018 14.2309 0.241211C14.3983 0.0804036 14.5965 0 14.8255 0H26.6648C26.8938 0 27.092 0.0804036 27.2594 0.241211C27.4268 0.402018 27.5104 0.592448 27.5104 0.8125V8.9375C27.5104 9.15755 27.4268 9.34798 27.2594 9.50879C27.092 9.6696 26.8938 9.75 26.6648 9.75ZM25.8191 2.4375C25.8191 2.21745 25.7354 2.02702 25.5681 1.86621C25.4007 1.7054 25.2025 1.625 24.9734 1.625H19.8995C19.6704 1.625 19.4722 1.7054 19.3049 1.86621C19.1375 2.02702 19.0538 2.21745 19.0538 2.4375V7.3125C19.0538 7.53255 19.1375 7.72298 19.3049 7.88379C19.4722 8.0446 19.6704 8.125 19.8995 8.125H24.9734C25.2025 8.125 25.4007 8.0446 25.5681 7.88379C25.7354 7.72298 25.8191 7.53255 25.8191 7.3125V2.4375ZM23.2821 6.5H21.5908C21.3618 6.5 21.1636 6.4196 20.9962 6.25879C20.8288 6.09798 20.7451 5.90755 20.7451 5.6875V4.0625C20.7451 3.84245 20.8288 3.65202 20.9962 3.49121C21.1636 3.3304 21.3618 3.25 21.5908 3.25H23.2821C23.5112 3.25 23.7094 3.3304 23.8767 3.49121C24.0441 3.65202 24.1278 3.84245 24.1278 4.0625V5.6875C24.1278 5.90755 24.0441 6.09798 23.8767 6.25879C23.7094 6.4196 23.5112 6.5 23.2821 6.5ZM13.9798 8.125H14.8255C15.0545 8.125 15.2527 8.2054 15.4201 8.36621C15.5875 8.52702 15.6712 8.71745 15.6712 8.9375C15.6712 9.15755 15.5875 9.34798 15.4201 9.50879C15.2527 9.6696 15.0545 9.75 14.8255 9.75H12.2885V10.5625C12.2885 10.7826 12.2048 10.973 12.0374 11.1338C11.8701 11.2946 11.6719 11.375 11.4428 11.375C11.2138 11.375 11.0156 11.2946 10.8482 11.1338C10.6809 10.973 10.5972 10.7826 10.5972 10.5625V9.75H5.5232V11.375H7.21452V10.5625C7.21452 10.3424 7.29821 10.152 7.46558 9.99121C7.63295 9.8304 7.83115 9.75 8.06019 9.75C8.28922 9.75 8.48742 9.8304 8.65479 9.99121C8.82216 10.152 8.90585 10.3424 8.90585 10.5625V13H9.75151C9.98055 13 10.1787 13.0804 10.3461 13.2412C10.5135 13.402 10.5972 13.5924 10.5972 13.8125C10.5972 14.0326 10.5135 14.223 10.3461 14.3838C10.1787 14.5446 9.98055 14.625 9.75151 14.625H8.06019C7.83115 14.625 7.63295 14.5446 7.46558 14.3838C7.29821 14.223 7.21452 14.0326 7.21452 13.8125V13H4.67753C4.4485 13 4.2503 12.9281 4.08293 12.7842C3.91556 12.6403 3.83187 12.4668 3.83187 12.2637V9.75H2.14055V10.6387C2.14055 10.8418 2.05686 11.0153 1.88949 11.1592C1.72212 11.3031 1.52392 11.375 1.29488 11.375C1.06585 11.375 0.867646 11.3031 0.700275 11.1592C0.532904 11.0153 0.449219 10.8418 0.449219 10.6387V9.11523C0.449219 9.08138 0.458028 9.04753 0.475646 9.01367C0.475646 8.99675 0.471241 8.98405 0.462432 8.97559C0.453623 8.96712 0.449219 8.95443 0.449219 8.9375V0.8125C0.449219 0.592448 0.532904 0.402018 0.700275 0.241211C0.867646 0.0804036 1.06585 0 1.29488 0H9.75151C9.98055 0 10.1787 0.0804036 10.3461 0.241211C10.5135 0.402018 10.5972 0.592448 10.5972 0.8125V1.625H11.4428C11.6719 1.625 11.8701 1.7054 12.0374 1.86621C12.2048 2.02702 12.2885 2.21745 12.2885 2.4375C12.2885 2.65755 12.2048 2.84798 12.0374 3.00879C11.8701 3.1696 11.6719 3.25 11.4428 3.25H10.5972V4.875H11.4428C11.6719 4.875 11.8701 4.9554 12.0374 5.11621C12.2048 5.27702 12.2885 5.46745 12.2885 5.6875C12.2885 5.90755 12.2048 6.09798 12.0374 6.25879C11.8701 6.4196 11.6719 6.5 11.4428 6.5H10.5972V8.125H12.2885V7.3125C12.2885 7.09245 12.3722 6.90202 12.5396 6.74121C12.7069 6.5804 12.9051 6.5 13.1342 6.5C13.3632 6.5 13.5614 6.5804 13.7288 6.74121C13.8961 6.90202 13.9798 7.09245 13.9798 7.3125V8.125ZM8.90585 2.4375C8.90585 2.21745 8.82216 2.02702 8.65479 1.86621C8.48742 1.7054 8.28922 1.625 8.06019 1.625H2.98621C2.75717 1.625 2.55897 1.7054 2.3916 1.86621C2.22423 2.02702 2.14055 2.21745 2.14055 2.4375V7.3125C2.14055 7.53255 2.22423 7.72298 2.3916 7.88379C2.55897 8.0446 2.75717 8.125 2.98621 8.125H8.06019C8.28922 8.125 8.48742 8.0446 8.65479 7.88379C8.82216 7.72298 8.90585 7.53255 8.90585 7.3125V2.4375ZM6.36886 6.5H4.67753C4.4485 6.5 4.2503 6.4196 4.08293 6.25879C3.91556 6.09798 3.83187 5.90755 3.83187 5.6875V4.0625C3.83187 3.84245 3.91556 3.65202 4.08293 3.49121C4.2503 3.3304 4.4485 3.25 4.67753 3.25H6.36886C6.59789 3.25 6.7961 3.3304 6.96347 3.49121C7.13084 3.65202 7.21452 3.84245 7.21452 4.0625V5.6875C7.21452 5.90755 7.13084 6.09798 6.96347 6.25879C6.7961 6.4196 6.59789 6.5 6.36886 6.5ZM1.29488 13C1.52392 13 1.72212 13.0804 1.88949 13.2412C2.05686 13.402 2.14055 13.5924 2.14055 13.8125C2.14055 14.0326 2.05686 14.223 1.88949 14.3838C1.72212 14.5446 1.52392 14.625 1.29488 14.625C1.06585 14.625 0.867646 14.5446 0.700275 14.3838C0.532904 14.223 0.449219 14.0326 0.449219 13.8125C0.449219 13.5924 0.532904 13.402 0.700275 13.2412C0.867646 13.0804 1.06585 13 1.29488 13ZM13.1342 14.625C12.9051 14.625 12.7069 14.5446 12.5396 14.3838C12.3722 14.223 12.2885 14.0326 12.2885 13.8125C12.2885 13.5924 12.3722 13.402 12.5396 13.2412C12.7069 13.0804 12.9051 13 13.1342 13C13.3632 13 13.5614 13.0804 13.7288 13.2412C13.8961 13.402 13.9798 13.5924 13.9798 13.8125C13.9798 14.0326 13.8961 14.223 13.7288 14.3838C13.5614 14.5446 13.3632 14.625 13.1342 14.625ZM14.8255 11.375C15.0545 11.375 15.2527 11.4554 15.4201 11.6162C15.5875 11.777 15.6712 11.9674 15.6712 12.1875C15.6712 12.4076 15.5875 12.598 15.4201 12.7588C15.2527 12.9196 15.0545 13 14.8255 13C14.5965 13 14.3983 12.9196 14.2309 12.7588C14.0635 12.598 13.9798 12.4076 13.9798 12.1875C13.9798 11.9674 14.0635 11.777 14.2309 11.6162C14.3983 11.4554 14.5965 11.375 14.8255 11.375ZM20.7451 12.1875C20.7451 11.9674 20.8288 11.777 20.9962 11.6162C21.1636 11.4554 21.3618 11.375 21.5908 11.375C21.8198 11.375 22.018 11.4554 22.1854 11.6162C22.3528 11.777 22.4365 11.9674 22.4365 12.1875C22.4365 12.4076 22.3528 12.598 22.1854 12.7588C22.018 12.9196 21.8198 13 21.5908 13C21.3618 13 21.1636 12.9196 20.9962 12.7588C20.8288 12.598 20.7451 12.4076 20.7451 12.1875ZM1.29488 16.25H3.83187V15.4375C3.83187 15.2174 3.91556 15.027 4.08293 14.8662C4.2503 14.7054 4.4485 14.625 4.67753 14.625C4.90657 14.625 5.10477 14.7054 5.27214 14.8662C5.43951 15.027 5.5232 15.2174 5.5232 15.4375V16.25H9.75151C9.98055 16.25 10.1787 16.3304 10.3461 16.4912C10.5135 16.652 10.5972 16.8424 10.5972 17.0625V15.4375C10.5972 15.2174 10.6809 15.027 10.8482 14.8662C11.0156 14.7054 11.2138 14.625 11.4428 14.625C11.6719 14.625 11.8701 14.7054 12.0374 14.8662C12.2048 15.027 12.2885 15.2174 12.2885 15.4375V17.0625H15.6712V15.4375C15.6712 15.2174 15.7548 15.027 15.9222 14.8662C16.0896 14.7054 16.2878 14.625 16.5168 14.625H22.4365V13.8125C22.4365 13.5924 22.5201 13.402 22.6875 13.2412C22.8549 13.0804 23.0531 13 23.2821 13C23.5112 13 23.7094 13.0804 23.8767 13.2412C24.0441 13.402 24.1278 13.5924 24.1278 13.8125V17.875H24.9734C25.2025 17.875 25.4007 17.9554 25.5681 18.1162C25.7354 18.277 25.8191 18.4674 25.8191 18.6875C25.8191 18.9076 25.7354 19.098 25.5681 19.2588C25.4007 19.4196 25.2025 19.5 24.9734 19.5H24.1278V21.9375C24.1278 22.1576 24.0441 22.348 23.8767 22.5088C23.7094 22.6696 23.5112 22.75 23.2821 22.75H20.7451V25.1875C20.7451 25.4076 20.6614 25.598 20.4941 25.7588C20.3267 25.9196 20.1285 26 19.8995 26C19.6704 26 19.4722 25.9196 19.3049 25.7588C19.1375 25.598 19.0538 25.4076 19.0538 25.1875V22.75H17.3625V23.5625C17.3625 23.7826 17.2788 23.973 17.1114 24.1338C16.9441 24.2946 16.7459 24.375 16.5168 24.375C16.2878 24.375 16.0896 24.2946 15.9222 24.1338C15.7548 23.973 15.6712 23.7826 15.6712 23.5625V22.75H14.8255C14.5965 22.75 14.3983 22.6696 14.2309 22.5088C14.0635 22.348 13.9798 22.1576 13.9798 21.9375C13.9798 21.7174 14.0635 21.527 14.2309 21.3662C14.3983 21.2054 14.5965 21.125 14.8255 21.125H15.6712V18.6875H10.5972V22.75H11.4428C11.6719 22.75 11.8701 22.8304 12.0374 22.9912C12.2048 23.152 12.2885 23.3424 12.2885 23.5625C12.2885 23.7826 12.2048 23.973 12.0374 24.1338C11.8701 24.2946 11.6719 24.375 11.4428 24.375H10.5972V25.1875C10.5972 25.4076 10.5135 25.598 10.3461 25.7588C10.1787 25.9196 9.98055 26 9.75151 26H1.29488C1.06585 26 0.867646 25.9196 0.700275 25.7588C0.532904 25.598 0.449219 25.4076 0.449219 25.1875V17.0625C0.449219 16.8424 0.532904 16.652 0.700275 16.4912C0.867646 16.3304 1.06585 16.25 1.29488 16.25ZM18.2081 21.125H21.5908C21.8198 21.125 22.018 21.0446 22.1854 20.8838C22.3528 20.723 22.4365 20.5326 22.4365 20.3125V17.0625C22.4365 16.8424 22.3528 16.652 22.1854 16.4912C22.018 16.3304 21.8198 16.25 21.5908 16.25H18.2081C17.9791 16.25 17.7809 16.3304 17.6135 16.4912C17.4462 16.652 17.3625 16.8424 17.3625 17.0625V20.3125C17.3625 20.5326 17.4462 20.723 17.6135 20.8838C17.7809 21.0446 17.9791 21.125 18.2081 21.125ZM2.14055 23.5625C2.14055 23.7826 2.22423 23.973 2.3916 24.1338C2.55897 24.2946 2.75717 24.375 2.98621 24.375H8.06019C8.28922 24.375 8.48742 24.2946 8.65479 24.1338C8.82216 23.973 8.90585 23.7826 8.90585 23.5625V18.6875C8.90585 18.4674 8.82216 18.277 8.65479 18.1162C8.48742 17.9554 8.28922 17.875 8.06019 17.875H2.98621C2.75717 17.875 2.55897 17.9554 2.3916 18.1162C2.22423 18.277 2.14055 18.4674 2.14055 18.6875V23.5625ZM4.67753 19.5H6.36886C6.59789 19.5 6.7961 19.5804 6.96347 19.7412C7.13084 19.902 7.21452 20.0924 7.21452 20.3125V21.9375C7.21452 22.1576 7.13084 22.348 6.96347 22.5088C6.7961 22.6696 6.59789 22.75 6.36886 22.75H4.67753C4.4485 22.75 4.2503 22.6696 4.08293 22.5088C3.91556 22.348 3.83187 22.1576 3.83187 21.9375V20.3125C3.83187 20.0924 3.91556 19.902 4.08293 19.7412C4.2503 19.5804 4.4485 19.5 4.67753 19.5ZM19.8995 17.875C20.1285 17.875 20.3267 17.9554 20.4941 18.1162C20.6614 18.277 20.7451 18.4674 20.7451 18.6875C20.7451 18.9076 20.6614 19.098 20.4941 19.2588C20.3267 19.4196 20.1285 19.5 19.8995 19.5C19.6704 19.5 19.4722 19.4196 19.3049 19.2588C19.1375 19.098 19.0538 18.9076 19.0538 18.6875C19.0538 18.4674 19.1375 18.277 19.3049 18.1162C19.4722 17.9554 19.6704 17.875 19.8995 17.875ZM13.1342 19.5C13.3632 19.5 13.5614 19.5804 13.7288 19.7412C13.8961 19.902 13.9798 20.0924 13.9798 20.3125C13.9798 20.5326 13.8961 20.723 13.7288 20.8838C13.5614 21.0446 13.3632 21.125 13.1342 21.125C12.9051 21.125 12.7069 21.0446 12.5396 20.8838C12.3722 20.723 12.2885 20.5326 12.2885 20.3125C12.2885 20.0924 12.3722 19.902 12.5396 19.7412C12.7069 19.5804 12.9051 19.5 13.1342 19.5ZM14.8255 24.375C15.0545 24.375 15.2527 24.4554 15.4201 24.6162C15.5875 24.777 15.6712 24.9674 15.6712 25.1875C15.6712 25.4076 15.5875 25.598 15.4201 25.7588C15.2527 25.9196 15.0545 26 14.8255 26C14.5965 26 14.3983 25.9196 14.2309 25.7588C14.0635 25.598 13.9798 25.4076 13.9798 25.1875C13.9798 24.9674 14.0635 24.777 14.2309 24.6162C14.3983 24.4554 14.5965 24.375 14.8255 24.375ZM23.2821 24.375H24.1278V23.5625C24.1278 23.3424 24.2115 23.152 24.3788 22.9912C24.5462 22.8304 24.7444 22.75 24.9734 22.75C25.2025 22.75 25.4007 22.8304 25.5681 22.9912C25.7354 23.152 25.8191 23.3424 25.8191 23.5625V24.375H26.6648C26.8938 24.375 27.092 24.4554 27.2594 24.6162C27.4268 24.777 27.5104 24.9674 27.5104 25.1875C27.5104 25.4076 27.4268 25.598 27.2594 25.7588C27.092 25.9196 26.8938 26 26.6648 26H23.2821C23.0531 26 22.8549 25.9196 22.6875 25.7588C22.5201 25.598 22.4365 25.4076 22.4365 25.1875C22.4365 24.9674 22.5201 24.777 22.6875 24.6162C22.8549 24.4554 23.0531 24.375 23.2821 24.375Z" fill="white"/>
</svg>
