<svg width="33" height="32" viewBox="0 0 33 32" fill="none" xmlns="http://www.w3.org/2000/svg">
<path fill-rule="evenodd" clip-rule="evenodd" d="M16.3232 7C15.3883 7 14.6556 7.73506 14.6556 8.61111V9.35991L14.3499 9.48843C12.3318 10.3369 11.4966 12.4176 11.2298 13.2985C11.1664 13.5079 11.1317 13.7332 11.1058 13.9853L10.7994 16.9632C10.7347 17.592 10.5383 18.2 10.2232 18.7477L8.9537 20.9537C8.87554 21.0895 8.83766 21.1916 8.82883 21.2759C8.79801 21.5701 8.86413 21.8037 8.97142 21.9505C9.06828 22.083 9.22603 22.1852 9.49486 22.1852H23.1516C23.4179 22.1852 23.5748 22.0849 23.6716 21.9552C23.7785 21.8119 23.8459 21.5836 23.8195 21.2945C23.8111 21.2031 23.7689 21.0923 23.68 20.9463L22.3956 18.837C22.0277 18.2327 21.8074 17.5501 21.7526 16.8445L21.5374 14.0737C21.5129 13.7578 21.4728 13.4728 21.389 13.2094C21.0924 12.2774 20.246 10.308 18.2965 9.48843L17.9909 9.35992V8.61111C17.9909 7.73506 17.2581 7 16.3232 7ZM18.471 23.1852H13.8043C14.0392 24.2151 14.9847 25 16.1376 25C17.2906 25 18.236 24.2151 18.471 23.1852ZM12.79 23.1852C13.0369 24.7884 14.4529 26 16.1376 26C17.8224 26 19.2383 24.7884 19.4852 23.1852H23.1516C23.7129 23.1852 24.1731 22.9512 24.4689 22.5547C24.7546 22.1718 24.8553 21.6819 24.8115 21.203C24.7829 20.8902 24.6521 20.6254 24.5299 20.4248L23.2456 18.3154C22.9595 17.8456 22.7883 17.315 22.7457 16.7668L22.5306 13.996C22.5036 13.6488 22.4558 13.2757 22.3379 12.9052C22.035 11.9532 21.1385 9.76798 18.987 8.70562V8.61111C18.987 7.15529 17.7805 6 16.3232 6C14.866 6 13.6594 7.15529 13.6594 8.61111V8.70561C11.4311 9.80591 10.5482 12.1109 10.2767 13.0077C10.1861 13.3071 10.1433 13.6058 10.1149 13.8825L9.80849 16.8605C9.75823 17.3491 9.60565 17.8216 9.36058 18.2475L8.09111 20.4535C7.98337 20.6407 7.86812 20.8849 7.83812 21.1713C7.78739 21.6556 7.88364 22.1527 8.16826 22.5421C8.46332 22.9458 8.92703 23.1852 9.49486 23.1852H12.79Z" fill="black"/>
<path fill-rule="evenodd" clip-rule="evenodd" d="M11.4123 6.86313C11.4876 7.12873 11.3342 7.40531 11.0696 7.48091C8.99405 8.07392 7.48214 10.4745 8.08303 12.8783C8.14998 13.1461 7.98796 13.4178 7.72115 13.485C7.45434 13.5522 7.18377 13.3895 7.11682 13.1217C6.38449 10.1921 8.20591 7.25939 10.7969 6.51911C11.0615 6.44351 11.337 6.59754 11.4123 6.86313ZM21.1774 6.86313C21.2527 6.59754 21.5282 6.44351 21.7928 6.51911C24.3838 7.25939 26.2052 10.1921 25.4728 13.1217C25.4059 13.3895 25.1353 13.5522 24.8685 13.485C24.6017 13.4178 24.4397 13.1461 24.5066 12.8783C25.1075 10.4745 23.5956 8.07392 21.5201 7.48091C21.2555 7.40531 21.1021 7.12873 21.1774 6.86313Z" fill="black"/>
</svg>
