<svg width="20" height="21" viewBox="0 0 20 21" fill="none" xmlns="http://www.w3.org/2000/svg">
<path d="M4.42883 1.41309C4.70119 1.10101 4.66899 0.627231 4.35692 0.354869C4.04484 0.0825061 3.57106 0.1147 3.2987 0.426777L2.00689 1.90695C1.27413 2.74655 0.859898 3.81707 0.836662 4.93122L0.779982 7.64888C0.771345 8.063 1.10006 8.40572 1.51418 8.41436C1.9283 8.42299 2.27102 8.09428 2.27966 7.68016L2.33634 4.9625C2.35223 4.20018 2.63565 3.46773 3.13702 2.89326L4.42883 1.41309Z" fill="black"/>
<path fill-rule="evenodd" clip-rule="evenodd" d="M4.23703 6.70087C4.37593 4.48013 6.21752 2.75012 8.4426 2.75012H9.00001V2.00012C9.00001 1.44784 9.44773 1.00012 10 1.00012C10.5523 1.00012 11 1.44784 11 2.00012V2.75012H11.5574C13.7825 2.75012 15.6241 4.48013 15.763 6.70087L15.984 10.2343C16.0682 11.5815 16.5205 12.8798 17.2916 13.9877C17.9883 14.9888 17.3681 16.3713 16.1571 16.5166L12.75 16.9255V18.0001C12.75 19.5189 11.5188 20.7501 10 20.7501C8.48123 20.7501 7.25001 19.5189 7.25001 18.0001V16.9255L3.84288 16.5166C2.63196 16.3713 2.01173 14.9888 2.70842 13.9877C3.47948 12.8798 3.93177 11.5815 4.01603 10.2343L4.23703 6.70087ZM8.4426 4.25012C7.00959 4.25012 5.82356 5.36429 5.7341 6.7945L5.5131 10.328C5.41171 11.9491 4.86745 13.5113 3.9396 14.8445C3.88925 14.9169 3.93408 15.0168 4.0216 15.0273L7.75926 15.4759C9.24775 15.6545 10.7523 15.6545 12.2408 15.4759L15.9784 15.0273C16.0659 15.0168 16.1108 14.9169 16.0604 14.8445C15.1326 13.5113 14.5883 11.9491 14.4869 10.328L14.2659 6.7945C14.1765 5.36429 12.9904 4.25012 11.5574 4.25012H8.4426ZM10 19.2501C9.30966 19.2501 8.75001 18.6905 8.75001 18.0001V17.2501H11.25V18.0001C11.25 18.6905 10.6904 19.2501 10 19.2501Z" fill="black"/>
<path d="M15.6431 0.354869C15.331 0.627231 15.2988 1.10101 15.5712 1.41309L16.863 2.89326C17.3644 3.46773 17.6478 4.20018 17.6637 4.9625L17.7204 7.68016C17.729 8.09428 18.0717 8.42299 18.4858 8.41436C18.9 8.40572 19.2287 8.063 19.22 7.64888L19.1634 4.93122C19.1401 3.81707 18.7259 2.74655 17.9931 1.90695L16.7013 0.426777C16.429 0.1147 15.9552 0.0825061 15.6431 0.354869Z" fill="black"/>
</svg>
