<svg width="54" height="44" viewBox="0 0 54 44" fill="none" xmlns="http://www.w3.org/2000/svg">
<path fill-rule="evenodd" clip-rule="evenodd" d="M12 1H42V31H12V1Z" fill="#C4C4C4" fill-opacity="0.01"/>
<g filter="url(#filter0_d_10_6804)">
<path d="M15 13C15 11.8954 15.8954 11 17 11H37C38.1046 11 39 11.8954 39 13V23C39 24.1046 38.1046 25 37 25H17C15.8954 25 15 24.1046 15 23V13Z" fill="white"/>
</g>
<path fill-rule="evenodd" clip-rule="evenodd" d="M17.7598 7.5C17.2075 7.5 16.7598 7.94771 16.7598 8.5C16.7598 9.05228 17.2075 9.5 17.7598 9.5L36.5598 9.50003C37.112 9.50003 37.5598 9.05232 37.5598 8.50003C37.5598 7.94775 37.1121 7.50003 36.5598 7.50003L17.7598 7.5ZM17 13H37V23H17L17 13ZM15 13C15 11.8954 15.8954 11 17 11H37C38.1046 11 39 11.8954 39 13V23C39 24.1046 38.1046 25 37 25H17C15.8954 25 15 24.1046 15 23V13ZM21.3392 14.6279C21.0295 15.0483 20.7512 15.3114 20.3263 15.5175C19.9782 15.6739 19.7358 16.0237 19.7358 16.43V19.6281C19.7358 20.0051 19.9445 20.3334 20.2525 20.5038L20.2519 20.505C20.7879 20.7976 21.0889 21.0458 21.3113 21.3947L21.3143 21.3928C21.4915 21.6725 21.8038 21.8582 22.1595 21.8582H31.8404C32.1718 21.8582 32.4655 21.697 32.6475 21.4487L32.6475 21.4487C32.9674 21.0112 33.2512 20.7419 33.6935 20.5315L33.6935 20.5315C34.0309 20.3708 34.2641 20.0267 34.2641 19.6281V16.43C34.2641 16.0413 34.0422 15.7043 33.7182 15.5389C33.2049 15.2561 32.9108 15.0131 32.6928 14.6768C32.5168 14.3908 32.2009 14.2 31.8404 14.2H22.1595C21.82 14.2 21.52 14.3692 21.3392 14.6279ZM32.2641 19.0479V16.9973C31.9303 16.777 31.6185 16.5214 31.3409 16.2H22.6431C22.3852 16.4991 22.0937 16.7718 21.7358 17.0107V19.0635C22.068 19.2833 22.3783 19.5381 22.6547 19.8582H31.3572C31.615 19.5593 31.9064 19.2867 32.2641 19.0479ZM24 17.0502C23.4477 17.0502 23 17.4979 23 18.0502C23 18.6025 23.4477 19.0502 24 19.0502H30C30.5523 19.0502 31 18.6025 31 18.0502C31 17.4979 30.5523 17.0502 30 17.0502H24Z" fill="#3E4958"/>
<defs>
<filter id="filter0_d_10_6804" x="0" y="0" width="54" height="44" filterUnits="userSpaceOnUse" color-interpolation-filters="sRGB">
<feFlood flood-opacity="0" result="BackgroundImageFix"/>
<feColorMatrix in="SourceAlpha" type="matrix" values="0 0 0 0 0 0 0 0 0 0 0 0 0 0 0 0 0 0 127 0" result="hardAlpha"/>
<feOffset dy="4"/>
<feGaussianBlur stdDeviation="7.5"/>
<feColorMatrix type="matrix" values="0 0 0 0 0 0 0 0 0 0 0 0 0 0 0 0 0 0 0.15 0"/>
<feBlend mode="normal" in2="BackgroundImageFix" result="effect1_dropShadow_10_6804"/>
<feBlend mode="normal" in="SourceGraphic" in2="effect1_dropShadow_10_6804" result="shape"/>
</filter>
</defs>
</svg>
