<svg width="32" height="32" viewBox="0 0 32 32" fill="none" xmlns="http://www.w3.org/2000/svg">
<path fill-rule="evenodd" clip-rule="evenodd" d="M8.5 8.50001L23.5 8.5C24.8807 8.5 26 9.61932 26 11V21C26 22.3807 24.8807 23.5 23.5 23.5L8.5 23.5C7.11929 23.5 6 22.3807 6 21L6 11C6 9.61932 7.11928 8.50002 8.5 8.50001ZM23.5 9.5L8.5 9.50001C7.7593 9.50001 7.14398 10.0369 7.02198 10.7428L14.0944 15.3335C15.2534 16.0859 16.7466 16.0859 17.9056 15.3335L24.978 10.7428C24.856 10.0369 24.2407 9.5 23.5 9.5ZM25 11.9207L18.4501 16.1723C16.9599 17.1396 15.0401 17.1396 13.5499 16.1723L7 11.9207L7 21C7 21.8284 7.67158 22.5 8.5 22.5L23.5 22.5C24.3284 22.5 25 21.8284 25 21V11.9207Z" fill="black"/>
</svg>
