<svg width="32" height="32" viewBox="0 0 32 32" fill="none" xmlns="http://www.w3.org/2000/svg">
<path fill-rule="evenodd" clip-rule="evenodd" d="M16 9C12.8452 9 9.87728 10.1921 7.31743 12.2954C7.10407 12.4707 6.789 12.4399 6.61369 12.2265C6.43839 12.0132 6.46924 11.6981 6.6826 11.5228C9.39443 9.29461 12.581 8 16 8C19.419 8 22.6056 9.29461 25.3174 11.5228C25.5308 11.6981 25.5616 12.0131 25.3863 12.2265C25.211 12.4399 24.896 12.4707 24.6826 12.2954C22.1228 10.1921 19.1548 9 16 9ZM7.62609 17.3358C7.52076 17.5539 7.50001 17.6721 7.50001 17.7045C7.50001 17.737 7.52076 17.8551 7.62609 18.0733C7.72478 18.2776 7.87725 18.5282 8.08357 18.8101C8.49565 19.3732 9.10059 20.0314 9.85433 20.6581C11.3688 21.9173 13.4225 23 15.6539 23C17.8852 23 19.9389 21.9173 21.4534 20.6581C22.2071 20.0314 22.8121 19.3732 23.2242 18.8101C23.4305 18.5282 23.5829 18.2776 23.6816 18.0733C23.787 17.8551 23.8077 17.737 23.8077 17.7045C23.8077 17.6721 23.787 17.5539 23.6816 17.3358C23.5829 17.1314 23.4305 16.8808 23.2242 16.5989C22.8121 16.0358 22.2071 15.3776 21.4534 14.7509C20.8046 14.2115 20.0568 13.7044 19.2385 13.301C19.695 13.9749 19.9616 14.7854 19.9616 15.6591C19.9616 18.0134 18.0257 19.9091 15.6539 19.9091C13.282 19.9091 11.3462 18.0134 11.3462 15.6591C11.3462 14.7854 11.6128 13.9749 12.0693 13.301C11.2509 13.7044 10.5032 14.2115 9.85433 14.7509C9.10059 15.3776 8.49565 16.0358 8.08357 16.5989C7.87725 16.8808 7.72478 17.1314 7.62609 17.3358ZM15.6539 11.4091C13.1058 11.4091 10.8326 12.6371 9.215 13.982C8.40271 14.6574 7.74032 15.3747 7.27659 16.0083C7.045 16.3248 6.85743 16.6279 6.72557 16.9009C6.60035 17.1603 6.50001 17.4434 6.50001 17.7045C6.50001 17.9656 6.60035 18.2487 6.72557 18.5081C6.85743 18.7812 7.045 19.0843 7.27659 19.4007C7.74032 20.0344 8.40271 20.7517 9.215 21.427C10.8326 22.772 13.1058 24 15.6539 24C18.2019 24 20.4751 22.772 22.0927 21.427C22.905 20.7517 23.5674 20.0344 24.0311 19.4007C24.2627 19.0843 24.4503 18.7812 24.5822 18.5081C24.7074 18.2487 24.8077 17.9656 24.8077 17.7045C24.8077 17.4434 24.7074 17.1603 24.5822 16.9009C24.4503 16.6279 24.2627 16.3248 24.0311 16.0083C23.5674 15.3747 22.905 14.6574 22.0927 13.982C20.4751 12.6371 18.2019 11.4091 15.6539 11.4091ZM15.6539 12.4091C13.8199 12.4091 12.3462 13.8713 12.3462 15.6591C12.3462 17.4468 13.8199 18.9091 15.6539 18.9091C17.4879 18.9091 18.9616 17.4468 18.9616 15.6591C18.9616 13.8713 17.4879 12.4091 15.6539 12.4091Z" fill="black"/>
</svg>
