<svg width="75" height="75" viewBox="0 0 75 75" fill="none" xmlns="http://www.w3.org/2000/svg">
<path d="M37.4999 0C17.3179 0 0.899902 16.7609 0.899902 37.3646C0.899902 57.9683 17.3179 74.7292 37.4999 74.7292C57.6819 74.7292 74.0999 57.9683 74.0999 37.3646C74.0999 16.7609 57.6819 0 37.4999 0Z" fill="#33E645"/>
<path d="M56.0502 29.4468L36.225 49.6856C35.6302 50.2928 34.8495 50.5984 34.0687 50.5984C33.288 50.5984 32.5072 50.2928 31.9125 49.6856L22.0001 39.5662C20.8072 38.349 20.8072 36.3809 22.0001 35.1636C23.1925 33.9458 25.1198 33.9458 26.3127 35.1636L34.0687 43.0817L51.7376 25.0442C52.93 23.8264 54.8573 23.8264 56.0502 25.0442C57.2425 26.2615 57.2425 28.229 56.0502 29.4468Z" fill="#FAFAFA"/>
</svg>
