<svg width="48" height="48" viewBox="0 0 48 48" fill="none" xmlns="http://www.w3.org/2000/svg">
<rect width="48" height="48" fill="white"/>
<path d="M17.625 41H15.9209V38.0312H13.3965V41H11.6826V33.8906H13.3965V36.7129H15.9209V33.8906H17.625V41ZM18.4307 38.3096C18.4307 37.7822 18.5332 37.3135 18.7383 36.9033C18.9434 36.4899 19.238 36.1725 19.6221 35.9512C20.0062 35.7298 20.457 35.6191 20.9746 35.6191C21.7656 35.6191 22.389 35.8649 22.8447 36.3564C23.3005 36.8447 23.5283 37.5104 23.5283 38.3535V38.4121C23.5283 39.2357 23.2988 39.89 22.8398 40.375C22.3841 40.8568 21.7656 41.0977 20.9844 41.0977C20.2324 41.0977 19.6286 40.873 19.1729 40.4238C18.7171 39.9714 18.4714 39.3594 18.4355 38.5879L18.4307 38.3096ZM20.0762 38.4121C20.0762 38.9004 20.1527 39.2585 20.3057 39.4863C20.4587 39.7142 20.6849 39.8281 20.9844 39.8281C21.5703 39.8281 21.8698 39.3773 21.8828 38.4756V38.3096C21.8828 37.3623 21.5801 36.8887 20.9746 36.8887C20.4245 36.8887 20.1266 37.2972 20.0811 38.1143L20.0762 38.4121ZM25.8086 35.7168L25.8623 36.3369C26.2367 35.8584 26.7396 35.6191 27.3711 35.6191C28.0384 35.6191 28.4893 35.8844 28.7236 36.415C29.0817 35.8844 29.5993 35.6191 30.2764 35.6191C31.3473 35.6191 31.8975 36.2669 31.9268 37.5625V41H30.2764V37.665C30.2764 37.3949 30.2308 37.1979 30.1396 37.0742C30.0485 36.9505 29.8825 36.8887 29.6416 36.8887C29.3161 36.8887 29.0736 37.0335 28.9141 37.3232L28.9189 37.3916V41H27.2686V37.6748C27.2686 37.3981 27.2246 37.1979 27.1367 37.0742C27.0488 36.9505 26.8812 36.8887 26.6338 36.8887C26.318 36.8887 26.0771 37.0335 25.9111 37.3232V41H24.2656V35.7168H25.8086ZM35.4229 41.0977C34.6123 41.0977 33.9564 40.8568 33.4551 40.375C32.9538 39.89 32.7031 39.2601 32.7031 38.4854V38.3486C32.7031 37.8083 32.8024 37.3314 33.001 36.918C33.2028 36.5046 33.4958 36.1855 33.8799 35.9609C34.264 35.7331 34.7197 35.6191 35.2471 35.6191C35.9893 35.6191 36.5752 35.8503 37.0049 36.3125C37.4346 36.7715 37.6494 37.4128 37.6494 38.2363V38.876H34.3779C34.4365 39.1722 34.5651 39.4049 34.7637 39.5742C34.9622 39.7435 35.2194 39.8281 35.5352 39.8281C36.056 39.8281 36.4629 39.6458 36.7559 39.2812L37.5078 40.1699C37.3027 40.4531 37.0114 40.6794 36.6338 40.8486C36.2594 41.0146 35.8558 41.0977 35.4229 41.0977ZM35.2373 36.8887C34.7555 36.8887 34.4691 37.2077 34.3779 37.8457H36.0381V37.7188C36.0446 37.4551 35.9779 37.2516 35.8379 37.1084C35.6979 36.9619 35.4977 36.8887 35.2373 36.8887Z" fill="#324A59"/>
<path fill-rule="evenodd" clip-rule="evenodd" d="M25.357 4.21839C24.902 3.9272 24.3192 3.9272 23.8642 4.21839L12.3258 11.603C11.6817 12.0152 11.4937 12.8715 11.9059 13.5156C12.3182 14.1597 13.1745 14.3477 13.8185 13.9355L14.9183 13.2316V24.3077C14.9183 26.3469 16.5714 28 18.6106 28H30.6106C32.6498 28 34.3029 26.3469 34.3029 24.3077V13.2316L35.4027 13.9355C36.0468 14.3477 36.9031 14.1597 37.3153 13.5156C37.7275 12.8715 37.5396 12.0152 36.8955 11.603L25.357 4.21839ZM29.6875 18.3077C29.6875 21.1116 27.4145 23.3846 24.6106 23.3846C21.8067 23.3846 19.5337 21.1116 19.5337 18.3077C19.5337 15.5038 21.8067 13.2308 24.6106 13.2308C27.4145 13.2308 29.6875 15.5038 29.6875 18.3077Z" fill="#324A59"/>
</svg>
