<svg width="27" height="24" viewBox="0 0 27 24" fill="none" xmlns="http://www.w3.org/2000/svg">
<path fill-rule="evenodd" clip-rule="evenodd" d="M14.357 0.218393C13.902 -0.0727978 13.3192 -0.0727978 12.8642 0.218393L1.32578 7.60301C0.681696 8.01523 0.493727 8.87153 0.905943 9.51561C1.31816 10.1597 2.17446 10.3477 2.81855 9.93545L3.91832 9.2316V20.3077C3.91832 22.3469 5.57142 24 7.61062 24H19.6106C21.6498 24 23.3029 22.3469 23.3029 20.3077V9.2316L24.4027 9.93545C25.0468 10.3477 25.9031 10.1597 26.3153 9.51561C26.7275 8.87153 26.5396 8.01523 25.8955 7.60301L14.357 0.218393ZM18.6875 14.3077C18.6875 17.1116 16.4145 19.3846 13.6106 19.3846C10.8067 19.3846 8.5337 17.1116 8.5337 14.3077C8.5337 11.5038 10.8067 9.23077 13.6106 9.23077C16.4145 9.23077 18.6875 11.5038 18.6875 14.3077Z" fill="#B8B8B8"/>
</svg>
