<svg width="15" height="17" viewBox="0 0 15 17" fill="none" xmlns="http://www.w3.org/2000/svg">
<path fill-rule="evenodd" clip-rule="evenodd" d="M7.20876 6.0835C6.40459 6.0835 5.75043 6.73766 5.75043 7.54266C5.75043 8.34683 6.40459 9.00016 7.20876 9.00016C8.01293 9.00016 8.66709 8.34683 8.66709 7.54266C8.66709 6.73766 8.01293 6.0835 7.20876 6.0835ZM7.20876 10.2502C5.71543 10.2502 4.50043 9.036 4.50043 7.54266C4.50043 6.0485 5.71543 4.8335 7.20876 4.8335C8.70209 4.8335 9.91709 6.0485 9.91709 7.54266C9.91709 9.036 8.70209 10.2502 7.20876 10.2502Z" fill="#324A59"/>
<mask id="mask0_810_1544" style="mask-type:alpha" maskUnits="userSpaceOnUse" x="0" y="0" width="15" height="17">
<path fill-rule="evenodd" clip-rule="evenodd" d="M0.333313 0.666748H14.0829V16.9167H0.333313V0.666748Z" fill="white"/>
</mask>
<g mask="url(#mask0_810_1544)">
<path fill-rule="evenodd" clip-rule="evenodd" d="M7.20789 1.91675C4.10622 1.91675 1.58289 4.46425 1.58289 7.59425C1.58289 11.5767 6.26955 15.4567 7.20789 15.6634C8.14622 15.4559 12.8329 11.5759 12.8329 7.59425C12.8329 4.46425 10.3096 1.91675 7.20789 1.91675ZM7.20789 16.9167C5.71289 16.9167 0.332886 12.2901 0.332886 7.59425C0.332886 3.77425 3.41705 0.666748 7.20789 0.666748C10.9987 0.666748 14.0829 3.77425 14.0829 7.59425C14.0829 12.2901 8.70289 16.9167 7.20789 16.9167Z" fill="#324A59"/>
</g>
</svg>
