<svg width="32" height="32" viewBox="0 0 32 32" fill="none" xmlns="http://www.w3.org/2000/svg">
<path fill-rule="evenodd" clip-rule="evenodd" d="M9.6974 11.8867L9.50001 11.8867C7.56701 11.8867 6 13.4537 6 15.3867L6 22.5C6 24.433 7.567 26 9.5 26H22.5C24.433 26 26 24.433 26 22.5V15.3868C26 13.4538 24.433 11.8868 22.5 11.8868L22.3026 11.8868C21.9343 8.59175 19.2742 6 16 6C12.7258 6 10.0657 8.59174 9.6974 11.8867ZM10.7043 11.8867L21.2957 11.8868C20.9345 9.10707 18.6805 7 16 7C13.3195 7 11.0655 9.10706 10.7043 11.8867ZM9.5 12.8867C8.11929 12.8867 7 14.006 7 15.3867L7 22.5C7 23.8807 8.11929 25 9.5 25H22.5C23.8807 25 25 23.8807 25 22.5V15.3868C25 14.006 23.8807 12.8868 22.5 12.8868L9.5 12.8867ZM16 16.515C16.2761 16.515 16.5 16.7388 16.5 17.015L16.5 20.1004C16.5 20.3766 16.2761 20.6004 16 20.6004C15.7239 20.6004 15.5 20.3766 15.5 20.1004L15.5 17.015C15.5 16.7388 15.7239 16.515 16 16.515Z" fill="black"/>
</svg>
