<svg width="24" height="24" viewBox="0 0 24 24" fill="none" xmlns="http://www.w3.org/2000/svg">
<path d="M16.5283 0C16.1434 0 15.8491 0.294295 15.8491 0.679245C15.8491 1.0642 16.1434 1.35849 16.5283 1.35849H21.6907L11.185 11.8642C10.9133 12.136 10.9133 12.566 11.185 12.815C11.3208 12.9508 11.5018 13.0189 11.6604 13.0189C11.8189 13.0189 12 12.9508 12.1358 12.815L22.6415 2.30926V7.4717C22.6415 7.85665 22.9358 8.15094 23.3208 8.15094C23.7057 8.15094 24 7.85665 24 7.4717V0.679245C24 0.294295 23.7057 0 23.3208 0H16.5283ZM2.9434 4.5283C1.31316 4.5283 0 5.84147 0 7.4717V21.0566C0 22.6868 1.31316 24 2.9434 24H16.5283C18.1585 24 19.4717 22.6868 19.4717 21.0566V10.8679C19.4717 10.483 19.1774 10.1887 18.7925 10.1887C18.4075 10.1887 18.1132 10.483 18.1132 10.8679V21.0566C18.1132 21.9397 17.4114 22.6415 16.5283 22.6415H2.9434C2.06029 22.6415 1.35849 21.9397 1.35849 21.0566V7.4717C1.35849 6.58859 2.06029 5.88679 2.9434 5.88679H13.1321C13.517 5.88679 13.8113 5.5925 13.8113 5.20755C13.8113 4.8226 13.517 4.5283 13.1321 4.5283H2.9434Z" fill="black"/>
</svg>
