<svg width="18" height="17" viewBox="0 0 18 17" fill="none" xmlns="http://www.w3.org/2000/svg">
<path fill-rule="evenodd" clip-rule="evenodd" d="M9.32331 9.65944C8.79368 9.65944 8.26564 9.48448 7.82389 9.13456L4.27327 6.2719C4.01756 6.06606 3.97798 5.6916 4.18302 5.43669C4.38964 5.18256 4.76331 5.14219 5.01823 5.34723L8.56568 8.20673C9.01139 8.55981 9.63918 8.55981 10.0881 8.20356L13.5999 5.34881C13.8548 5.1406 14.2285 5.18019 14.4359 5.4351C14.6425 5.68923 14.6037 6.06289 14.3496 6.27031L10.8314 9.12981C10.3865 9.4829 9.85452 9.65944 9.32331 9.65944Z" fill="#324A59"/>
<mask id="mask0_236_339" style="mask-type:alpha" maskUnits="userSpaceOnUse" x="0" y="0" width="18" height="17">
<path fill-rule="evenodd" clip-rule="evenodd" d="M0.791626 0.583252H17.8124V16.0207H0.791626V0.583252Z" fill="white"/>
</mask>
<g mask="url(#mask0_236_339)">
<path fill-rule="evenodd" clip-rule="evenodd" d="M5.41405 14.8333H13.1882C13.1898 14.8317 13.1961 14.8333 13.2009 14.8333C14.1042 14.8333 14.9053 14.5103 15.5197 13.8967C16.233 13.1866 16.6248 12.1661 16.6248 11.0238V5.58659C16.6248 3.37546 15.1793 1.77075 13.1882 1.77075H5.41563C3.42459 1.77075 1.979 3.37546 1.979 5.58659V11.0238C1.979 12.1661 2.37167 13.1866 3.08417 13.8967C3.6985 14.5103 4.50046 14.8333 5.40296 14.8333H5.41405ZM5.40059 16.0207C4.17905 16.0207 3.08813 15.5774 2.2458 14.7382C1.30767 13.8025 0.791504 12.4836 0.791504 11.0237V5.58658C0.791504 2.73421 2.77938 0.583252 5.41563 0.583252H13.1882C15.8245 0.583252 17.8123 2.73421 17.8123 5.58658V11.0237C17.8123 12.4836 17.2962 13.8025 16.358 14.7382C15.5165 15.5766 14.4248 16.0207 13.2009 16.0207H13.1882H5.41563H5.40059Z" fill="#324A59"/>
</g>
</svg>
