<svg width="20" height="20" viewBox="0 0 20 20" fill="none" xmlns="http://www.w3.org/2000/svg">
<path fill-rule="evenodd" clip-rule="evenodd" d="M14.2535 18.278C14.9929 18.3221 15.6246 18.1245 16.1405 17.6086L18.1402 15.6089C18.2407 15.5085 18.2194 15.3826 18.1638 15.327L15.292 12.4552C15.2364 12.3996 15.1105 12.3784 15.0101 12.4788L13.0104 14.4785C12.9164 14.5725 12.7888 14.6252 12.6559 14.625L12.6568 14.125C12.6559 14.625 12.6551 14.625 12.6544 14.625L12.6529 14.6249L12.6499 14.6249L12.6436 14.6248L12.6301 14.6243C12.6207 14.6238 12.6104 14.6231 12.5993 14.6221C12.5772 14.6201 12.5516 14.6167 12.5225 14.6116C12.4643 14.6013 12.3917 14.5836 12.3029 14.5541C12.1259 14.4954 11.8809 14.3883 11.5531 14.1936C10.8992 13.8053 9.89295 13.055 8.40919 11.597C6.92323 10.1368 6.16883 9.127 5.78417 8.46069C5.59118 8.12641 5.48801 7.87302 5.43351 7.68783C5.40619 7.59497 5.39094 7.51867 5.3829 7.45755C5.37888 7.42697 5.37667 7.40023 5.37565 7.37715C5.37515 7.36561 5.37494 7.355 5.37496 7.34531L5.37514 7.33146L5.37533 7.32505L5.37546 7.32197L5.37552 7.32046C5.37556 7.31972 5.37559 7.31898 5.87501 7.34313L5.37559 7.31898C5.38159 7.19487 5.43359 7.07744 5.52145 6.98958L7.52116 4.98988C7.62161 4.88942 7.60036 4.7636 7.54476 4.70801L4.67292 1.83616C4.61732 1.78057 4.49151 1.75932 4.39105 1.85977L2.39133 3.8595C1.87423 4.37659 1.67499 5.00697 1.71583 5.74223C1.75767 6.4956 2.05355 7.35418 2.53648 8.26499C3.50178 10.0855 5.13802 11.9745 6.5696 13.4061C7.99237 14.8289 9.88775 16.4716 11.7171 17.4452C12.6324 17.9324 13.4961 18.2329 14.2535 18.278ZM6.42488 7.50037L8.22826 5.69698C8.68705 5.2382 8.72943 4.47846 8.25187 4.0009L5.38003 1.12905C4.90246 0.651492 4.14272 0.693885 3.68394 1.15266L1.68422 3.15239C0.935596 3.90101 0.6633 4.82425 0.717366 5.79768C0.770426 6.75301 1.13589 7.7582 1.65299 8.73344C2.68777 10.685 4.40639 12.6571 5.8625 14.1132C7.31012 15.5608 9.28801 17.2852 11.2472 18.328C12.2262 18.8491 13.2356 19.2192 14.1941 19.2763C15.1706 19.3344 16.0977 19.0656 16.8476 18.3157L18.8473 16.316C19.3061 15.8572 19.3485 15.0975 18.8709 14.6199L15.9991 11.7481C15.5215 11.2705 14.7618 11.3129 14.303 11.7717L12.5103 13.5644C12.4072 13.5215 12.2602 13.4505 12.0637 13.3338C11.5024 13.0005 10.56 12.3085 9.11007 10.8837C7.66234 9.4611 6.97443 8.52232 6.65021 7.96071C6.53191 7.75581 6.46383 7.60419 6.42488 7.50037Z" fill="black"/>
</svg>
