<svg width="22" height="32" viewBox="0 0 22 32" fill="none" xmlns="http://www.w3.org/2000/svg">
<path fill-rule="evenodd" clip-rule="evenodd" d="M10.9708 0.631836C5.22555 0.631836 0.561035 5.76837 0.561035 12.095C0.561035 15.3974 2.11966 19.2345 4.03411 22.6317C6.81257 27.564 10.2856 31.5719 10.2856 31.5719C10.4645 31.7783 10.7124 31.895 10.9708 31.895C11.2291 31.895 11.4771 31.7783 11.6559 31.5719C11.6559 31.5719 15.129 27.564 17.9075 22.6317C19.8219 19.2345 21.3805 15.3974 21.3805 12.095C21.3805 5.76837 16.716 0.631836 10.9708 0.631836ZM10.9708 6.88447C8.35889 6.88447 6.23908 9.21878 6.23908 12.095C6.23908 14.9712 8.35889 17.3055 10.9708 17.3055C13.5827 17.3055 15.7025 14.9712 15.7025 12.095C15.7025 9.21878 13.5827 6.88447 10.9708 6.88447Z" fill="#203840"/>
</svg>
