<svg width="23" height="24" viewBox="0 0 23 24" fill="none" xmlns="http://www.w3.org/2000/svg">
<path d="M3.98533 19.8537C3.98533 19.8537 3.98533 5.42115 3.98533 3.25342H2.13307C0.96 3.25342 0 4.21368 0 5.38728V21.8668C0 23.0393 0.96 23.9998 2.13307 23.9998H14.8285C16.0019 23.9998 16.9621 23.2497 16.9621 22.3334C16.9621 22.2156 16.9621 22.0996 16.9621 21.9878C13.4891 21.9878 6.1184 21.9878 6.1184 21.9878C4.94507 21.9878 3.98533 21.0278 3.98533 19.8537Z" fill="#B8B8B8"/>
<path d="M17.5552 5.93603H21.5985L16.576 0.652832V4.95657C16.576 5.49657 17.0152 5.93603 17.5552 5.93603Z" fill="#B8B8B8"/>
<path d="M17.5552 7.1776C16.3304 7.1776 15.3344 6.18133 15.3344 4.9568V0H7.35975C6.18642 0 5.22668 0.805067 5.22668 1.78827C5.22668 2.772 5.22668 18.6125 5.22668 18.6125C5.22668 19.7867 6.18642 20.7469 7.35975 20.7469C7.35975 20.7469 18.704 20.7469 19.8774 20.7469H20.055C21.2283 20.7469 22.1883 19.7867 22.1883 18.6125V7.1776H17.5552ZM18.6835 17.0187H8.73202V15.7776H18.6835V17.0187ZM18.6835 13.7016H8.73202V12.4605H18.6835V13.7016ZM18.6835 10.3845H8.73202V9.1432H18.6835V10.3845Z" fill="#B8B8B8"/>
</svg>
