<svg width="32" height="32" viewBox="0 0 32 32" fill="none" xmlns="http://www.w3.org/2000/svg">
<path fill-rule="evenodd" clip-rule="evenodd" d="M15.6674 1.62662C15.857 1.45779 16.143 1.45779 16.3325 1.62662L21.0483 5.82662C21.2545 6.01028 21.2728 6.32633 21.0891 6.53254C20.9055 6.73876 20.5894 6.75704 20.3832 6.57338L16.5 3.11487L16.5 19.5C16.5 19.7761 16.2761 20 16 20C15.7238 20 15.5 19.7761 15.5 19.5L15.5 3.11487L11.6167 6.57338C11.4105 6.75704 11.0945 6.73876 10.9108 6.53254C10.7271 6.32633 10.7454 6.01028 10.9516 5.82662L15.6674 1.62662Z" fill="black"/>
<path fill-rule="evenodd" clip-rule="evenodd" d="M6.80005 10.6665C5.97162 10.6665 5.30005 11.3381 5.30005 12.1665V27.9998C5.30005 28.8283 5.97162 29.4998 6.80005 29.4998H25.2C26.0285 29.4998 26.7 28.8283 26.7 27.9998V12.1665C26.7 11.3381 26.0285 10.6665 25.2 10.6665H20.48C20.2039 10.6665 19.98 10.4426 19.98 10.1665C19.98 9.89036 20.2039 9.6665 20.48 9.6665H25.2C26.5808 9.6665 27.7 10.7858 27.7 12.1665V27.9998C27.7 29.3805 26.5808 30.4998 25.2 30.4998H6.80005C5.41933 30.4998 4.30005 29.3806 4.30005 27.9998V12.1665C4.30005 10.7858 5.41934 9.6665 6.80005 9.6665H11.52C11.7962 9.6665 12.02 9.89036 12.02 10.1665C12.02 10.4426 11.7962 10.6665 11.52 10.6665H6.80005Z" fill="black"/>
</svg>
