<svg width="6" height="6" viewBox="0 0 6 6" fill="none" xmlns="http://www.w3.org/2000/svg">
<path d="M3 4.80361L2.87934 4.87009L1.32964 5.72405C1.3268 5.72561 1.32404 5.72709 1.32136 5.72848C1.32218 5.71987 1.32338 5.71043 1.32507 5.70013L1.62103 3.89142L1.64146 3.76658L1.55298 3.67618L0.29924 2.39525C0.28794 2.3837 0.279088 2.37338 0.272187 2.36443C0.280209 2.36248 0.289532 2.36061 0.300289 2.35897L2.03291 2.09508L2.16467 2.07501L2.22145 1.95443L2.9963 0.308813C2.99754 0.306178 2.99878 0.303626 3 0.301156C3.00122 0.303626 3.00245 0.306178 3.00369 0.308813L3.22987 0.202313L3.00369 0.308813L3.77854 1.95443L3.83532 2.07501L3.96708 2.09508L5.6997 2.35897C5.71046 2.36061 5.71978 2.36248 5.72781 2.36443C5.7209 2.37338 5.71205 2.3837 5.70075 2.39525L4.44702 3.67618L4.35853 3.76658L4.37896 3.89142L4.67493 5.70013C4.67661 5.71043 4.67781 5.71987 4.67863 5.72848C4.67595 5.72709 4.67319 5.72561 4.67036 5.72405L3.12065 4.87009L3 4.80361Z" fill="white" stroke="#FFBC10" stroke-width="0.5"/>
</svg>
