<svg width="32" height="32" viewBox="0 0 32 32" fill="none" xmlns="http://www.w3.org/2000/svg">
<path fill-rule="evenodd" clip-rule="evenodd" d="M11.6154 6C11.8915 6 12.1154 6.22386 12.1154 6.5V7.46155L19.8846 7.46156V6.5C19.8846 6.22386 20.1085 6 20.3846 6C20.6608 6 20.8846 6.22386 20.8846 6.5V7.46157L22.5769 7.46157C24.4674 7.46157 26 8.99414 26 10.8846V22.5769C26 24.4674 24.4674 26 22.5769 26L9.42308 26C7.53256 26 6 24.4674 6 22.5769L6 10.8846C6 8.9941 7.53257 7.46154 9.42308 7.46154L11.1154 7.46155V6.5C11.1154 6.22386 11.3392 6 11.6154 6ZM11.1154 8.46155L9.42308 8.46154C8.08485 8.46154 7 9.54639 7 10.8846L7 12.5769H25V10.8846C25 9.54642 23.9152 8.46157 22.5769 8.46157L20.8846 8.46157V9.42308C20.8846 9.69922 20.6608 9.92308 20.3846 9.92308C20.1085 9.92308 19.8846 9.69922 19.8846 9.42308V8.46156L12.1154 8.46155V9.42308C12.1154 9.69922 11.8915 9.92308 11.6154 9.92308C11.3392 9.92308 11.1154 9.69922 11.1154 9.42308V8.46155ZM25 13.5769H7L7 22.5769C7 23.9152 8.08485 25 9.42308 25L22.5769 25C23.9151 25 25 23.9151 25 22.5769V13.5769ZM10.3846 17.4615C10.3846 17.1854 10.6085 16.9615 10.8846 16.9615H12.3462C12.6223 16.9615 12.8462 17.1854 12.8462 17.4615C12.8462 17.7377 12.6223 17.9615 12.3462 17.9615H10.8846C10.6085 17.9615 10.3846 17.7377 10.3846 17.4615ZM14.7692 17.4615C14.7692 17.1854 14.9931 16.9615 15.2692 16.9615H16.7308C17.0069 16.9615 17.2308 17.1854 17.2308 17.4615C17.2308 17.7377 17.0069 17.9615 16.7308 17.9615H15.2692C14.9931 17.9615 14.7692 17.7377 14.7692 17.4615ZM19.1538 17.4615C19.1538 17.1854 19.3777 16.9615 19.6538 16.9615H21.1154C21.3915 16.9615 21.6154 17.1854 21.6154 17.4615C21.6154 17.7377 21.3915 17.9615 21.1154 17.9615H19.6538C19.3777 17.9615 19.1538 17.7377 19.1538 17.4615ZM10.3846 21.1154C10.3846 20.8392 10.6085 20.6154 10.8846 20.6154H12.3462C12.6223 20.6154 12.8462 20.8392 12.8462 21.1154C12.8462 21.3915 12.6223 21.6154 12.3462 21.6154H10.8846C10.6085 21.6154 10.3846 21.3915 10.3846 21.1154ZM14.7692 21.1154C14.7692 20.8392 14.9931 20.6154 15.2692 20.6154H16.7308C17.0069 20.6154 17.2308 20.8392 17.2308 21.1154C17.2308 21.3915 17.0069 21.6154 16.7308 21.6154H15.2692C14.9931 21.6154 14.7692 21.3915 14.7692 21.1154ZM19.1538 21.1154C19.1538 20.8392 19.3777 20.6154 19.6538 20.6154H21.1154C21.3915 20.6154 21.6154 20.8392 21.6154 21.1154C21.6154 21.3915 21.3915 21.6154 21.1154 21.6154H19.6538C19.3777 21.6154 19.1538 21.3915 19.1538 21.1154Z" fill="black"/>
</svg>
