<svg width="20" height="20" viewBox="0 0 20 20" fill="none" xmlns="http://www.w3.org/2000/svg">
<path d="M18.0057 17.6586L18.2695 18.0833L18.0057 17.6586ZM1.99275 17.6586L2.25659 17.2339H2.25659L1.99275 17.6586ZM1.2371 16.0563L1.73527 16.099L1.2371 16.0563ZM18.7613 16.0563L18.2632 16.099V16.099L18.7613 16.0563ZM18.0661 13.6031L17.6099 13.8079L18.0661 13.6031ZM1.93236 13.6031L1.47624 13.3982L1.93236 13.6031ZM13.8838 4.88462C13.8838 7.03003 12.1446 8.76923 9.99921 8.76923V9.76923C12.6969 9.76923 14.8838 7.58231 14.8838 4.88462H13.8838ZM9.99921 8.76923C7.8538 8.76923 6.1146 7.03003 6.1146 4.88462H5.1146C5.1146 7.58231 7.30151 9.76923 9.99921 9.76923V8.76923ZM6.1146 4.88462C6.1146 2.7392 7.8538 1 9.99921 1V0C7.30151 0 5.1146 2.18692 5.1146 4.88462H6.1146ZM9.99921 1C12.1446 1 13.8838 2.7392 13.8838 4.88462H14.8838C14.8838 2.18692 12.6969 0 9.99921 0V1ZM17.7418 17.2339C16.6621 17.9046 14.2515 19 9.99921 19V20C14.4335 20 17.0276 18.8548 18.2695 18.0833L17.7418 17.2339ZM9.99921 19C5.7469 19 3.3363 17.9046 2.25659 17.2339L1.72891 18.0833C2.97081 18.8548 5.56491 20 9.99921 20V19ZM0.738928 16.0135C0.669883 16.818 1.00434 17.6332 1.72891 18.0833L2.25659 17.2339C1.89481 17.0091 1.69383 16.5818 1.73527 16.099L0.738928 16.0135ZM18.2632 16.099C18.3046 16.5818 18.1036 17.0091 17.7418 17.2339L18.2695 18.0833C18.9941 17.6332 19.3285 16.818 19.2595 16.0135L18.2632 16.099ZM17.6099 13.8079C17.9115 14.4793 18.1945 15.299 18.2632 16.099L19.2595 16.0135C19.1773 15.0556 18.8461 14.1195 18.5222 13.3982L17.6099 13.8079ZM1.73527 16.099C1.80393 15.299 2.08695 14.4793 2.38848 13.8079L1.47624 13.3982C1.15237 14.1195 0.821149 15.0556 0.738928 16.0135L1.73527 16.099ZM15.7028 11.6923H4.29558V12.6923H15.7028V11.6923ZM2.38848 13.8079C2.70214 13.1094 3.44722 12.6923 4.29558 12.6923V11.6923C3.13946 11.6923 1.98373 12.2681 1.47624 13.3982L2.38848 13.8079ZM18.5222 13.3982C18.0147 12.2681 16.859 11.6923 15.7028 11.6923V12.6923C16.5512 12.6923 17.2963 13.1094 17.6099 13.8079L18.5222 13.3982Z" fill="black"/>
</svg>
