<svg width="32" height="32" viewBox="0 0 32 32" fill="none" xmlns="http://www.w3.org/2000/svg">
<path fill-rule="evenodd" clip-rule="evenodd" d="M15.9993 7C13.8538 7 12.1146 8.7392 12.1146 10.8846C12.1146 13.03 13.8538 14.7692 15.9993 14.7692C18.1447 14.7692 19.8839 13.03 19.8839 10.8846C19.8839 8.7392 18.1447 7 15.9993 7ZM11.1146 10.8846C11.1146 8.18692 13.3016 6 15.9993 6C18.697 6 20.8839 8.18692 20.8839 10.8846C20.8839 13.5823 18.697 15.7692 15.9993 15.7692C13.3016 15.7692 11.1146 13.5823 11.1146 10.8846ZM10.2956 18.6923C9.44726 18.6923 8.70218 19.1094 8.38853 19.8079C8.087 20.4793 7.80397 21.299 7.73531 22.099C7.69387 22.5818 7.89485 23.0091 8.25663 23.2339C9.33634 23.9046 11.7469 25 15.9993 25C20.2516 25 22.6622 23.9046 23.7419 23.2339C24.1037 23.0091 24.3046 22.5818 24.2632 22.099C24.1945 21.299 23.9115 20.4793 23.61 19.8079C23.2963 19.1094 22.5512 18.6923 21.7029 18.6923H10.2956ZM7.47628 19.3982C7.98377 18.2681 9.13951 17.6923 10.2956 17.6923H21.7029C22.859 17.6923 24.0147 18.2681 24.5222 19.3982C24.8461 20.1195 25.1773 21.0556 25.2595 22.0135C25.3286 22.818 24.9941 23.6332 24.2696 24.0833C23.0277 24.8548 20.4336 26 15.9993 26C11.565 26 8.97085 24.8548 7.72895 24.0833C7.00438 23.6332 6.66993 22.818 6.73897 22.0135C6.82119 21.0556 7.15241 20.1195 7.47628 19.3982Z" fill="black"/>
</svg>
