<svg width="24" height="24" viewBox="0 0 24 24" fill="none" xmlns="http://www.w3.org/2000/svg">
<path fill-rule="evenodd" clip-rule="evenodd" d="M4.0144 12.484C8.48048 12.9267 10.2951 15.4573 10.6784 19.8913C7.0442 19.2872 4.23813 16.2334 4.0144 12.484ZM4.54049 9.10342C5.701 6.11692 8.60328 4 12 4C15.3967 4 18.299 6.11692 19.4595 9.10342H4.54049ZM13.3486 19.8868C13.7282 15.4558 15.5249 12.9268 19.9856 12.484C19.7624 16.2241 16.9697 19.2721 13.3486 19.8868ZM24 12C24 18.6274 18.6274 24 12 24C5.37258 24 0 18.6274 0 12C0 5.37258 5.37258 0 12 0C18.6274 0 24 5.37258 24 12Z" fill="#B8B8B8"/>
</svg>
