<svg width="40" height="33" viewBox="0 0 40 33" fill="none" xmlns="http://www.w3.org/2000/svg">
<path d="M20 12.5C16.686 12.5 14 15.1872 14 18.5C14 21.814 16.686 24.5 20 24.5C23.3132 24.5 26 21.814 26 18.5C26 15.1872 23.3132 12.5 20 12.5ZM36 6.5H31.2C30.54 6.5 29.8288 5.988 29.6204 5.3616L28.3796 1.638C28.1704 1.012 27.46 0.5 26.8 0.5H13.2C12.54 0.5 11.8288 1.012 11.6204 1.6384L10.3796 5.362C10.1704 5.988 9.46 6.5 8.8 6.5H4C1.8 6.5 0 8.3 0 10.5V28.5C0 30.7 1.8 32.5 4 32.5H36C38.2 32.5 40 30.7 40 28.5V10.5C40 8.3 38.2 6.5 36 6.5ZM20 28.5C14.4772 28.5 10 24.0228 10 18.5C10 12.9776 14.4772 8.5 20 8.5C25.522 8.5 30 12.9776 30 18.5C30 24.0228 25.522 28.5 20 28.5ZM34.6 13.2972C33.8272 13.2972 33.2 12.6708 33.2 11.8972C33.2 11.1244 33.8272 10.4972 34.6 10.4972C35.3736 10.4972 36 11.1244 36 11.8972C36 12.6708 35.3732 13.2972 34.6 13.2972Z" fill="#D5DDE0"/>
</svg>
