<svg width="20" height="20" viewBox="0 0 20 20" fill="none" xmlns="http://www.w3.org/2000/svg">
<path fill-rule="evenodd" clip-rule="evenodd" d="M12.9346 1.20827C14.5425 -0.402759 17.1498 -0.402756 18.7577 1.20827C20.3651 2.81877 20.3651 5.42949 18.7577 7.03999L6.82084 19L19.5 19C19.7761 19 20 19.2239 20 19.5C20 19.7761 19.7761 20 19.5 20L0.5 20C0.223858 20 2.68221e-07 19.7761 2.38419e-07 19.5L0 14.3747C0 14.2423 0.0525457 14.1152 0.146105 14.0215L12.9346 1.20827ZM5.40799 19L15.5051 8.88333L11.0962 4.46583L1 14.5815L1 19H5.40799ZM11.8026 3.75804L16.2115 8.17554L18.05 6.33357C19.2677 5.11344 19.2677 3.13482 18.05 1.9147C16.8327 0.695102 14.8596 0.695101 13.6424 1.91469L11.8026 3.75804Z" fill="black"/>
</svg>
