<svg width="20" height="20" viewBox="0 0 20 20" fill="none" xmlns="http://www.w3.org/2000/svg">
<path d="M9.99506 14.6766V12.1396" stroke="#324A59" stroke-width="1.5" stroke-linecap="round" stroke-linejoin="round"/>
<path fill-rule="evenodd" clip-rule="evenodd" d="M16.1899 3.33008C17.8799 3.33008 19.2399 4.70008 19.2399 6.39008V9.83008C16.7799 11.2701 13.5299 12.1401 9.98988 12.1401C6.44988 12.1401 3.20988 11.2701 0.749878 9.83008V6.38008C0.749878 4.69008 2.11988 3.33008 3.80988 3.33008H16.1899Z" stroke="#324A59" stroke-width="1.5" stroke-linecap="round" stroke-linejoin="round"/>
<path d="M13.4951 3.32576V2.95976C13.4951 1.73976 12.5051 0.749756 11.2851 0.749756H8.70506C7.48506 0.749756 6.49506 1.73976 6.49506 2.95976V3.32576" stroke="#324A59" stroke-width="1.5" stroke-linecap="round" stroke-linejoin="round"/>
<path d="M0.774353 13.4829L0.963353 15.9919C1.09135 17.6829 2.50035 18.9899 4.19535 18.9899H15.7944C17.4894 18.9899 18.8984 17.6829 19.0264 15.9919L19.2154 13.4829" stroke="#324A59" stroke-width="1.5" stroke-linecap="round" stroke-linejoin="round"/>
</svg>
